<?xml version="1.0" encoding="utf-8" ?>
<!DOCTYPE svg PUBLIC "-//W3C//DTD SVG 1.0//EN" "http://www.w3.org/TR/2001/REC-SVG-20010904/DTD/svg10.dtd">

<svg xmlns="http://www.w3.org/2000/svg" xmlns:xlink="http://www.w3.org/1999/xlink" viewBox="-3 -2 6 4" width="600" height="400">

	<title>Circle Moire</title>
	<desc></desc>
	<style type="text/css">
	<![CDATA[
	]]>
	</style>

	<defs>
		<g id="moire_circle">
			<circle cx="0" cy="0" r="0.09" stroke="black" stroke-width="0.02" fill="none" />
			<circle cx="0" cy="0" r="0.19" stroke="black" stroke-width="0.02" fill="none" />
			<circle cx="0" cy="0" r="0.29" stroke="black" stroke-width="0.02" fill="none" />
			<circle cx="0" cy="0" r="0.39" stroke="black" stroke-width="0.02" fill="none" />
			<circle cx="0" cy="0" r="0.49" stroke="black" stroke-width="0.02" fill="none" />
			<circle cx="0" cy="0" r="0.59" stroke="black" stroke-width="0.02" fill="none" />
			<circle cx="0" cy="0" r="0.69" stroke="black" stroke-width="0.02" fill="none" />
			<circle cx="0" cy="0" r="0.79" stroke="black" stroke-width="0.02" fill="none" />
			<circle cx="0" cy="0" r="0.89" stroke="black" stroke-width="0.02" fill="none" />
			<circle cx="0" cy="0" r="0.99" stroke="black" stroke-width="0.02" fill="none" />

			<circle cx="0" cy="0" r="1.09" stroke="black" stroke-width="0.02" fill="none" />
			<circle cx="0" cy="0" r="1.19" stroke="black" stroke-width="0.02" fill="none" />
			<circle cx="0" cy="0" r="1.29" stroke="black" stroke-width="0.02" fill="none" />
			<circle cx="0" cy="0" r="1.39" stroke="black" stroke-width="0.02" fill="none" />
			<circle cx="0" cy="0" r="1.49" stroke="black" stroke-width="0.02" fill="none" />
			<circle cx="0" cy="0" r="1.59" stroke="black" stroke-width="0.02" fill="none" />
			<circle cx="0" cy="0" r="1.69" stroke="black" stroke-width="0.02" fill="none" />
			<circle cx="0" cy="0" r="1.79" stroke="black" stroke-width="0.02" fill="none" />
			<circle cx="0" cy="0" r="1.89" stroke="black" stroke-width="0.02" fill="none" />
			<circle cx="0" cy="0" r="1.99" stroke="black" stroke-width="0.02" fill="none" />

			<circle cx="0" cy="0" r="0.04" stroke="black" stroke-width="0.02" fill="none" />
			<circle cx="0" cy="0" r="0.14" stroke="black" stroke-width="0.02" fill="none" />
			<circle cx="0" cy="0" r="0.24" stroke="black" stroke-width="0.02" fill="none" />
			<circle cx="0" cy="0" r="0.34" stroke="black" stroke-width="0.02" fill="none" />
			<circle cx="0" cy="0" r="0.44" stroke="black" stroke-width="0.02" fill="none" />
			<circle cx="0" cy="0" r="0.54" stroke="black" stroke-width="0.02" fill="none" />
			<circle cx="0" cy="0" r="0.64" stroke="black" stroke-width="0.02" fill="none" />
			<circle cx="0" cy="0" r="0.74" stroke="black" stroke-width="0.02" fill="none" />
			<circle cx="0" cy="0" r="0.84" stroke="black" stroke-width="0.02" fill="none" />
			<circle cx="0" cy="0" r="0.94" stroke="black" stroke-width="0.02" fill="none" />

			<circle cx="0" cy="0" r="1.04" stroke="black" stroke-width="0.02" fill="none" />
			<circle cx="0" cy="0" r="1.14" stroke="black" stroke-width="0.02" fill="none" />
			<circle cx="0" cy="0" r="1.24" stroke="black" stroke-width="0.02" fill="none" />
			<circle cx="0" cy="0" r="1.34" stroke="black" stroke-width="0.02" fill="none" />
			<circle cx="0" cy="0" r="1.44" stroke="black" stroke-width="0.02" fill="none" />
			<circle cx="0" cy="0" r="1.54" stroke="black" stroke-width="0.02" fill="none" />
			<circle cx="0" cy="0" r="1.64" stroke="black" stroke-width="0.02" fill="none" />
			<circle cx="0" cy="0" r="1.74" stroke="black" stroke-width="0.02" fill="none" />
			<circle cx="0" cy="0" r="1.84" stroke="black" stroke-width="0.02" fill="none" />
			<circle cx="0" cy="0" r="1.94" stroke="black" stroke-width="0.02" fill="none" />
		</g>
	</defs>

	<use xlink:href="#moire_circle" transform="translate(0.5 0)">
		<animateTransform attributeName="transform" type="translate" values="-1,0;1,0;-1,0" keyTimes="0.0;0.5;1.0" dur="30s" repeatCount="indefinite"/>
	</use>
	<use xlink:href="#moire_circle" transform="translate(-0.5 0)">
		<animateTransform attributeName="transform" type="translate" values="1,0;-1,0;1,0" keyTimes="0.0;0.5;1.0" dur="30s" repeatCount="indefinite"/>
	</use>
</svg>
